PathFileType	4	(X/Y/Z)	C:\Users\Basilio\Documents\Thesis Gigler\squatting_fais\c3dfiles\077\SLS_front_pre2\markers_experimental.trc
DataRate	CameraRate	NumFrames	NumMarkers	Units	OrigDataRate	OrigDataStartFrame	OrigNumFrames
200.000000	200.000000	4	60	mm	200.000000	778	2075
Frame#	Time	FHD			LBHD			RBHD			C7			T10			CLAV			LSHO			LUUPA			LMUPA			LDUPA			LLEP			LMEP			LRAD			LUL			LRFIN			RSHO			RUPA1			RMUPA			RDUPA			RLEP			RMEP			RUL			RUFIN			LASI			RASI			USACR			LSACR			RSACR			LTHI1			LTHI2			LTHI3			LTHI4			LLFC			LMFC			LTIB1			LTIB2			LTIB3			LTIB4			LLMAL			LHEE			LMT1			LMT2			LMT5			RTHI			RTHI2			RTHI3			RTHI4			RLFC			RMFC			RTIB1			RTIB2			RTIB3			RTIB4			RLMAL			RMMAL			RHEE			RMT1			RMT2			RMT5			RRAD			
		X1	Y1	Z1	X2	Y2	Z2	X3	Y3	Z3	X4	Y4	Z4	X5	Y5	Z5	X6	Y6	Z6	X7	Y7	Z7	X8	Y8	Z8	X9	Y9	Z9	X10	Y10	Z10	X11	Y11	Z11	X12	Y12	Z12	X13	Y13	Z13	X14	Y14	Z14	X15	Y15	Z15	X16	Y16	Z16	X17	Y17	Z17	X18	Y18	Z18	X19	Y19	Z19	X20	Y20	Z20	X21	Y21	Z21	X22	Y22	Z22	X23	Y23	Z23	X24	Y24	Z24	X25	Y25	Z25	X26	Y26	Z26	X27	Y27	Z27	X28	Y28	Z28	X29	Y29	Z29	X30	Y30	Z30	X31	Y31	Z31	X32	Y32	Z32	X33	Y33	Z33	X34	Y34	Z34	X35	Y35	Z35	X36	Y36	Z36	X37	Y37	Z37	X38	Y38	Z38	X39	Y39	Z39	X40	Y40	Z40	X41	Y41	Z41	X42	Y42	Z42	X43	Y43	Z43	X44	Y44	Z44	X45	Y45	Z45	X46	Y46	Z46	X47	Y47	Z47	X48	Y48	Z48	X49	Y49	Z49	X50	Y50	Z50	X51	Y51	Z51	X52	Y52	Z52	X53	Y53	Z53	X54	Y54	Z54	X55	Y55	Z55	X56	Y56	Z56	X57	Y57	Z57	X58	Y58	Z58	X59	Y59	Z59	X60	Y60	Z60	

779	3.89	-246.588851928711	1866.651245117188	-952.4268798828127	-380.7893676757813	1752.304321289063	-1021.319091796875	-387.3917541503907	1748.542846679688	-874.7680664062502	-432.4136047363282	1616.920654296875	-961.1607666015627	-448.6555786132814	1276.81640625	-955.1694946289065	-271.0781555175782	1553.203002929688	-951.0249633789065	-288.5955200195313	1575.02587890625	-1149.601684570313	-285.7474670410157	1343.009033203125	-1238.979614257813	-244.3157043457032	1324.646606445313	-1217.715209960938	-276.5938415527344	1274.132690429688	-1234.964965820313	-256.1744689941407	1213.001220703125	-1223.55322265625	-319.6248779296876	1199.915161132813	-1181.29052734375	-152.0068664550782	962.7929687500002	-1067.091186523438	-166.4580383300782	940.8259277343752	-1143.826538085938	-102.6979904174805	878.9597167968752	-1067.436889648438	-287.3541259765626	1571.122436523438	-762.3356933593751	-282.9851074218751	1351.08642578125	-659.2001953125001	-243.594711303711	1334.231811523438	-682.4990234375001	-270.0341796875001	1282.44970703125	-662.3568115234376	-248.5231323242188	1220.391967773438	-673.0213012695314	-311.3551025390626	1204.702758789063	-717.0733642578126	-159.4478912353516	939.4622192382815	-698.0383300781251	-120.7633514404297	867.4497070312502	-779.100036621094	-254.3644256591797	1063.121826171875	-1071.45166015625	-269.5178833007813	1100.546020507813	-787.3585205078127	-458.4818420410157	1173.379028320313	-950.395202636719	-464.0425109863282	1142.138916015625	-977.8128051757815	-472.5232238769532	1142.494262695313	-922.5838012695315	-329.3551635742188	856.0208129882815	-1124.42236328125	-302.1168518066407	776.4941406250002	-1123.831298828125	-252.6035766601563	777.5382080078127	-1119.440795898438	-331.0006713867188	725.4923706054689	-1105.941162109375	-305.7024841308594	578.0628051757814	-1085.737060546875	-291.1579589843751	554.7053222656251	-953.857360839844	-278.5111083984376	352.7546386718751	-1023.328491210938	-312.6173095703126	310.9702758789063	-1095.455932617188	-281.6094360351563	306.9230346679688	-1061.391235351563	-289.7158813476563	228.2278137207032	-1032.93701171875	-354.1202392578126	111.5070419311524	-1076.814331054688	-406.4675292968751	79.1465530395508	-1025.164428710938	-196.2683563232422	56.02149963378908	-1010.357727050781	-192.2111053466797	57.66828536987306	-1052.697509765625	-322.3565673828126	122.1725769042969	-993.3857421875002	-348.3323974609376	763.5077514648439	-729.1187744140626	-309.4419860839844	708.7001342773439	-724.8740844726564	-275.6814575195313	710.5937500000001	-727.9996337890626	-333.1995849609376	631.8601074218751	-739.1477050781251	-326.7822265625001	565.1903076171876	-737.5108642578126	-290.9683837890626	546.6872558593751	-862.4033203125002	-289.9721984863282	423.3648376464845	-752.7195434570314	-361.5093078613282	352.2518615722657	-717.9974975585939	-319.7054748535157	343.0223083496094	-738.4734497070314	-320.8938293457032	297.8137207031251	-778.1185302734377	-407.0948181152345	128.4306640625	-733.5713500976564	-381.7341613769532	132.2716979980469	-823.737976074219	-473.2723999023439	102.1285934448242	-783.4422607421877	-252.9561462402344	60.72034835815431	-787.1279296875002	-254.2623443603516	60.40441131591798	-749.2343139648439	-271.6066284179688	44.3563461303711	-700.3199462890626	-164.4510040283203	954.1622314453127	-776.8386230468752	
780	3.895	-246.957504272461	1866.393920898438	-952.1439208984377	-381.1484985351563	1751.819213867188	-1021.062255859375	-387.7879028320314	1748.368408203125	-874.5046386718752	-432.7600097656251	1616.871337890625	-960.9028320312502	-448.8939514160157	1276.652221679688	-954.9736328125002	-271.5428161621094	1553.283935546875	-950.7908325195315	-288.5312805175782	1574.986083984375	-1149.10400390625	-284.5816040039063	1342.939331054688	-1238.349365234375	-243.2071990966797	1324.871337890625	-1217.1826171875	-275.4983825683594	1274.356323242188	-1234.699462890625	-254.3126678466797	1213.191528320313	-1223.204467773438	-318.0599670410157	1199.808227539063	-1181.234741210938	-150.5585632324219	963.0355224609377	-1067.750610351563	-163.6600646972657	941.426452636719	-1144.11279296875	-100.3977508544922	879.2550048828127	-1067.397705078125	-287.5600891113282	1570.976806640625	-762.3756103515626	-282.5197448730469	1350.750732421875	-659.6412963867189	-242.7590026855469	1334.165649414063	-682.9881591796876	-268.5099182128907	1282.759155273438	-662.5202026367189	-246.8775024414063	1220.776123046875	-672.9885253906251	-309.5812988281251	1204.979614257813	-716.8250732421876	-156.64794921875	940.2619628906252	-697.3257446289064	-119.2074890136719	867.7642211914065	-778.7524414062502	-254.3478088378907	1063.1865234375	-1071.158569335938	-269.5573730468751	1100.530883789063	-787.1756591796877	-458.7838134765626	1173.228759765625	-950.0627441406252	-464.0777587890626	1142.184936523438	-977.5849609375002	-472.4554748535157	1142.406860351563	-922.404968261719	-329.2669677734376	855.9177856445315	-1124.257080078125	-302.1694946289063	776.551208496094	-1123.803588867188	-252.6286010742188	777.6352539062502	-1119.550537109375	-331.0927124023438	725.5476684570314	-1105.774169921875	-305.7554626464844	578.0891113281251	-1085.714599609375	-291.0321960449219	554.6533813476564	-953.8168945312502	-278.4988098144532	352.8262634277344	-1023.325439453125	-312.5795593261719	311.0307006835938	-1095.47802734375	-281.6545715332032	306.6808471679688	-1061.404541015625	-289.7124633789063	228.2118225097657	-1032.935302734375	-354.0996093750001	111.5626449584961	-1076.837768554688	-406.5346069335939	79.16516113281251	-1025.150024414063	-196.2879486083985	56.08490371704103	-1010.391906738281	-192.2403869628907	57.63796615600587	-1052.73828125	-322.3346862792969	122.066276550293	-993.459899902344	-348.2626342773438	763.4526367187501	-728.9371337890626	-309.3305053710938	708.7860717773439	-724.6201171875001	-275.5209960937501	710.5821533203126	-727.8303222656251	-333.0898437500001	631.8073120117189	-738.9957885742189	-326.6153259277344	565.1679077148439	-737.3243408203126	-290.7784423828126	546.5714111328126	-862.191833496094	-289.8702392578126	423.309783935547	-752.5829467773439	-361.3604736328126	352.2372741699219	-717.9173583984376	-319.5853881835938	342.9807739257813	-738.3845214843751	-320.7713623046876	297.6677856445313	-777.9932861328127	-407.128875732422	128.4340209960938	-733.5751953125001	-381.7403869628907	132.281494140625	-823.6971435546877	-473.2543945312501	102.105941772461	-783.4622192382815	-252.984603881836	60.78560256958009	-787.1589355468752	-254.2779083251954	60.45424270629884	-749.2276611328126	-271.5938415527344	44.35255432128907	-700.3000488281251	-162.2686157226563	954.599060058594	-776.0915527343752	
781	3.9	-247.7646636962891	1866.773803710938	-952.0566406250002	-381.6645507812501	1752.228881835938	-1020.716674804688	-388.3462829589845	1747.140014648438	-874.126892089844	-433.1614379882814	1616.876831054688	-960.644226074219	-449.078338623047	1276.516723632813	-954.7058715820315	-271.8617248535157	1553.309204101563	-950.5717773437502	-288.4665222167969	1574.902221679688	-1148.577514648438	-283.7252807617188	1343.043701171875	-1238.004516601563	-241.8383331298829	1324.884887695313	-1216.5234375	-273.7312011718751	1274.194213867188	-1234.296508789063	-252.3354949951172	1213.14111328125	-1223.025512695313	-316.2234497070313	1199.587646484375	-1181.331787109375	-147.1521301269532	963.226257324219	-1067.1875	-160.7632141113282	942.0076904296877	-1144.448608398438	-97.97161102294925	879.9036254882815	-1067.455078125	-287.7613220214844	1570.817749023438	-762.4490966796876	-281.2142333984376	1350.91015625	-659.6650390625001	-241.4363708496094	1334.333618164063	-683.1422119140626	-266.7760925292969	1283.1025390625	-662.4935302734376	-245.1047668457032	1221.226196289063	-673.0898437500001	-307.9772033691407	1204.859130859375	-716.7157592773439	-153.753662109375	940.9892578125002	-696.4561157226564	-118.2466506958008	868.613220214844	-779.0747680664065	-254.4094543457032	1063.13623046875	-1070.943969726563	-269.6342163085938	1100.580322265625	-786.9165039062502	-458.7920837402345	1173.209594726563	-949.8610839843752	-464.0113220214845	1142.074340820313	-977.3814697265627	-472.4802246093751	1142.257934570313	-922.0975341796877	-329.3367614746094	855.975036621094	-1124.112670898438	-302.2781372070313	776.6560668945315	-1123.782836914063	-253.4292297363282	777.815856933594	-1119.798217773438	-331.1739501953126	725.5527343750001	-1105.658203125	-305.4344177246094	578.0471801757814	-1085.555297851563	-291.0245971679688	554.6494750976564	-953.7593994140627	-278.5076904296876	352.7788391113282	-1023.32568359375	-312.5217590332032	311.0247802734376	-1095.475830078125	-281.5771789550782	306.8232116699219	-1061.35205078125	-289.6829833984376	228.1829223632813	-1032.9697265625	-354.0977783203126	111.4899444580078	-1076.8271484375	-406.5221557617189	79.15532684326173	-1025.157836914063	-196.2868652343751	56.05457687377931	-1010.388671875	-192.2521209716797	57.64390945434572	-1052.720703125	-322.3582763671876	122.1975784301758	-993.390808105469	-348.2149353027344	763.4634399414064	-728.6944580078126	-309.2239379882813	708.8455200195314	-724.3944702148439	-275.4420166015626	710.5986328125001	-727.5357666015626	-332.9256286621094	631.7611694335939	-738.8303222656251	-326.4793090820313	565.1571655273439	-737.1505126953126	-290.7354125976563	546.5776367187501	-862.0689697265627	-289.6474914550782	423.3350219726564	-752.4096069335939	-361.2966613769532	352.2285766601563	-717.7763671875001	-319.5395202636719	342.8884582519532	-738.2601318359376	-320.6651000976563	297.6342468261719	-777.899353027344	-407.1776733398439	128.4204864501953	-733.5380859375001	-381.7692565917969	132.3064270019532	-823.6958007812502	-473.252899169922	102.1490478515625	-783.4614868164065	-252.9766235351563	60.77887344360353	-787.1247558593752	-254.2629547119141	60.48432922363283	-749.2415161132814	-271.5822143554688	44.33047103881837	-700.3013916015626	-160.1875	955.036315917969	-775.4363403320315	
782	3.905	-248.1234436035157	1866.55517578125	-951.7738037109377	-382.1910705566407	1751.936157226563	-1020.451354980469	-388.803680419922	1747.098022460938	-873.9785156250002	-433.4851074218751	1616.870239257813	-960.4321289062502	-449.361053466797	1276.332763671875	-954.3894042968752	-272.4075317382813	1553.351928710938	-950.425476074219	-288.5632019042969	1574.896118164063	-1148.310546875	-282.6582336425782	1343.032348632813	-1237.492309570313	-240.6138305664063	1325.071044921875	-1216.01171875	-272.2407836914063	1274.400146484375	-1234.062133789063	-250.7886657714844	1213.4384765625	-1222.7470703125	-314.4237060546876	1199.2080078125	-1181.38330078125	-145.4747467041016	963.8674926757815	-1067.929443359375	-157.6477813720703	942.3560180664065	-1144.597534179688	-95.1092987060547	880.4160766601565	-1067.486206054688	-287.8704223632813	1570.504516601563	-762.8944091796876	-279.7644958496094	1351.09423828125	-659.7744750976564	-240.1852111816407	1334.891479492188	-683.4937133789064	-265.0367736816407	1283.411254882813	-662.6574096679689	-243.1311645507813	1221.622680664063	-673.1375732421876	-305.9933776855469	1205.07421875	-716.3896484375001	-150.9503173828125	941.4573364257815	-695.7138671875001	-115.943099975586	868.7614746093752	-778.2932739257815	-254.2435760498047	1063.33935546875	-1070.474975585938	-269.6869201660157	1100.604736328125	-786.6199340820315	-458.9769287109376	1173.134155273438	-949.5778808593752	-464.2967529296876	1141.91650390625	-977.1690673828127	-472.6837768554689	1142.1005859375	-921.8972778320315	-329.4275207519532	855.960876464844	-1124.009765625	-302.3408203125001	776.7645263671877	-1123.79052734375	-252.6833801269532	777.5997314453127	-1119.490356445313	-331.1640319824219	725.5742797851564	-1105.573120117188	-305.6276245117188	578.0763549804689	-1085.517822265625	-290.8372192382813	554.6610717773439	-953.6987304687502	-278.4030151367188	352.8221435546876	-1023.3193359375	-312.4920959472657	311.0411071777344	-1095.46240234375	-281.5281066894532	306.9623413085938	-1061.319091796875	-289.7074279785157	228.2152709960938	-1032.903198242188	-354.0881958007813	111.4913024902344	-1076.831298828125	-406.4959411621095	79.17462158203126	-1025.135864257813	-196.2796783447266	56.06187057495119	-1010.388610839844	-192.2483978271485	57.67880249023439	-1052.72802734375	-322.3326416015626	122.1516952514649	-993.4484863281252	-348.1813659667969	763.4766235351564	-728.4498901367189	-309.1303100585938	708.8518066406251	-724.1778564453126	-275.3219909667969	710.5636596679689	-727.2765502929689	-332.7721557617188	631.7624511718751	-738.6169433593751	-326.3480834960938	565.1043701171876	-736.9819946289064	-290.5139465332032	546.5492553710939	-861.8858032226565	-289.3963012695313	423.4069213867189	-752.2067260742189	-361.1972961425782	352.1943969726563	-717.7202758789064	-319.1903076171876	342.7101135253907	-738.1181640625001	-320.7086791992188	297.7323913574219	-777.8718261718752	-407.1607971191407	128.4591979980469	-733.5147705078126	-381.8648071289063	132.3247833251953	-823.7072753906252	-473.2503662109376	102.1266860961914	-783.4339599609377	-252.9610443115235	60.72976303100587	-787.110778808594	-254.2831726074219	60.33483886718751	-749.2352294921876	-271.5760192871094	44.34177017211915	-700.2908935546876	-157.8573913574219	955.5088500976565	-774.6441040039065	
